<?xml version="1.0" encoding="UTF-8" standalone="no"?>
<svg
   xmlns:ooo="http://xml.openoffice.org/svg/export"
   xmlns:dc="http://purl.org/dc/elements/1.1/"
   xmlns:cc="http://creativecommons.org/ns#"
   xmlns:rdf="http://www.w3.org/1999/02/22-rdf-syntax-ns#"
   xmlns:svg="http://www.w3.org/2000/svg"
   xmlns="http://www.w3.org/2000/svg"
   xmlns:sodipodi="http://sodipodi.sourceforge.net/DTD/sodipodi-0.dtd"
   xmlns:inkscape="http://www.inkscape.org/namespaces/inkscape"
   version="1.2"
   width="522.63782"
   height="331.29922"
   viewBox="0 0 14750.001 9350.0003"
   preserveAspectRatio="xMidYMid"
   clip-path="url(#presentation_clip_path)"
   xml:space="preserve"
   id="svg2"
   inkscape:version="0.91 r13725"
   sodipodi:docname="filesystem-challenge.svg"
   style="fill-rule:evenodd;stroke-width:28.22200012;stroke-linejoin:round"><metadata
     id="metadata321"><rdf:RDF><cc:Work
         rdf:about=""><dc:format>image/svg+xml</dc:format><dc:type
           rdf:resource="http://purl.org/dc/dcmitype/StillImage" /></cc:Work></rdf:RDF></metadata><sodipodi:namedview
     pagecolor="#ffffff"
     bordercolor="#666666"
     borderopacity="1"
     objecttolerance="10"
     gridtolerance="10"
     guidetolerance="10"
     inkscape:pageopacity="0"
     inkscape:pageshadow="2"
     inkscape:window-width="1366"
     inkscape:window-height="747"
     id="namedview319"
     showgrid="false"
     fit-margin-top="0"
     fit-margin-left="0"
     fit-margin-right="0"
     fit-margin-bottom="0"
     inkscape:zoom="1.7679549"
     inkscape:cx="261.31888"
     inkscape:cy="165.64961"
     inkscape:window-x="0"
     inkscape:window-y="21"
     inkscape:window-maximized="1"
     inkscape:current-layer="g49" /><defs
     class="ClipPathGroup"
     id="defs4"><clipPath
       id="presentation_clip_path"
       clipPathUnits="userSpaceOnUse"><rect
         x="0"
         y="0"
         width="21590"
         height="27940"
         id="rect7" /></clipPath></defs><defs
     class="TextShapeIndex"
     id="defs9"><g
       ooo:slide="id1"
       ooo:id-list="id3 id4 id5 id6 id7 id8 id9 id10 id11 id12 id13 id14 id15 id16 id17 id18 id19 id20 id21 id22 id23 id24 id25 id26 id27 id28 id29 id30 id31"
       id="g11" /></defs><defs
     class="EmbeddedBulletChars"
     id="defs13"><g
       id="bullet-char-template(57356)"
       transform="scale(4.8828125e-4,-4.8828125e-4)"><path
         d="M 580,1141 1163,571 580,0 -4,571 580,1141 z"
         id="path16"
         inkscape:connector-curvature="0" /></g><g
       id="bullet-char-template(57354)"
       transform="scale(4.8828125e-4,-4.8828125e-4)"><path
         d="m 8,1128 1129,0 L 1137,0 8,0 8,1128 z"
         id="path19"
         inkscape:connector-curvature="0" /></g><g
       id="bullet-char-template(10146)"
       transform="scale(4.8828125e-4,-4.8828125e-4)"><path
         d="M 174,0 602,739 174,1481 1456,739 174,0 z m 1184,739 -1049,607 350,-607 699,0 z"
         id="path22"
         inkscape:connector-curvature="0" /></g><g
       id="bullet-char-template(10132)"
       transform="scale(4.8828125e-4,-4.8828125e-4)"><path
         d="M 2015,739 1276,0 717,0 l 543,543 -1086,0 0,393 1086,0 -543,545 557,0 741,-742 z"
         id="path25"
         inkscape:connector-curvature="0" /></g><g
       id="bullet-char-template(10007)"
       transform="scale(4.8828125e-4,-4.8828125e-4)"><path
         d="m 0,-2 c -7,16 -16,29 -25,39 l 381,530 c -94,256 -141,385 -141,387 0,25 13,38 40,38 9,0 21,-2 34,-5 21,4 42,12 65,25 l 27,-13 111,-251 280,301 64,-25 24,25 c 21,-10 41,-24 62,-43 C 886,937 835,863 770,784 769,783 710,716 594,584 L 774,223 c 0,-27 -21,-55 -63,-84 l 16,-20 C 717,90 699,76 672,76 641,76 570,178 457,381 L 164,-76 c -22,-34 -53,-51 -92,-51 -42,0 -63,17 -64,51 -7,9 -10,24 -10,44 0,9 1,19 2,30 z"
         id="path28"
         inkscape:connector-curvature="0" /></g><g
       id="bullet-char-template(10004)"
       transform="scale(4.8828125e-4,-4.8828125e-4)"><path
         d="M 285,-33 C 182,-33 111,30 74,156 52,228 41,333 41,471 c 0,78 14,145 41,201 34,71 87,106 158,106 53,0 88,-31 106,-94 l 23,-176 c 8,-64 28,-97 59,-98 l 735,706 c 11,11 33,17 66,17 42,0 63,-15 63,-46 l 0,-122 c 0,-36 -10,-64 -30,-84 L 442,47 C 390,-6 338,-33 285,-33 z"
         id="path31"
         inkscape:connector-curvature="0" /></g><g
       id="bullet-char-template(9679)"
       transform="scale(4.8828125e-4,-4.8828125e-4)"><path
         d="M 813,0 C 632,0 489,54 383,161 276,268 223,411 223,592 c 0,181 53,324 160,431 106,107 249,161 430,161 179,0 323,-54 432,-161 108,-107 162,-251 162,-431 0,-180 -54,-324 -162,-431 C 1136,54 992,0 813,0 z"
         id="path34"
         inkscape:connector-curvature="0" /></g><g
       id="bullet-char-template(8226)"
       transform="scale(4.8828125e-4,-4.8828125e-4)"><path
         d="m 346,457 c -73,0 -137,26 -191,78 -54,51 -81,114 -81,188 0,73 27,136 81,188 54,52 118,78 191,78 73,0 134,-26 185,-79 51,-51 77,-114 77,-187 0,-75 -25,-137 -76,-188 -50,-52 -112,-78 -186,-78 z"
         id="path37"
         inkscape:connector-curvature="0" /></g><g
       id="bullet-char-template(8211)"
       transform="scale(4.8828125e-4,-4.8828125e-4)"><path
         d="m -4,459 1139,0 0,147 -1139,0 0,-147 z"
         id="path40"
         inkscape:connector-curvature="0" /></g></defs><defs
     class="TextEmbeddedBitmaps"
     id="defs42" /><g
     id="g44"
     transform="translate(-1175,-1275)"><g
       id="id2"
       class="Master_Slide"><g
         id="bg-id2"
         class="Background" /><g
         id="bo-id2"
         class="BackgroundObjects" /></g></g><g
     class="SlideGroup"
     id="g49"
     transform="translate(-1175,-1275)"><g
       id="g56"
       class="Group"><g
         id="g58"
         class="com.sun.star.drawing.CustomShape"><g
           id="id3"><path
             style="fill:none;stroke:#000000;stroke-width:50"
             inkscape:connector-curvature="0"
             id="path61"
             d="m 8550,2600 -1150,0 0,-1100 2300,0 0,1100 -1150,0 z" /><text
             id="text63"
             class="TextShape"><tspan
               style="font-weight:400;font-size:388px"
               id="tspan65"
               font-weight="400"
               font-size="388px"
               class="TextParagraph"><tspan
                 id="tspan67"
                 y="2185"
                 x="8076"
                 class="TextPosition"><tspan
                   style="fill:#000000;stroke:none"
                   id="tspan69">Users</tspan></tspan></tspan></text>
</g></g><g
         id="g71"
         class="com.sun.star.drawing.CustomShape"><g
           id="id4"><path
             style="fill:none;stroke:#000000;stroke-width:50"
             inkscape:connector-curvature="0"
             id="path74"
             d="m 7400,1500 1001,0 -251,-200 -500,0 -250,200 z" /></g></g></g><g
       id="g76"
       class="Group"><g
         id="g78"
         class="com.sun.star.drawing.CustomShape"><g
           id="id5"><path
             style="fill:none;stroke:#000000;stroke-width:50"
             inkscape:connector-curvature="0"
             id="path81"
             d="m 5050,5000 -1150,0 0,-1100 2300,0 0,1100 -1150,0 z" /><text
             id="text83"
             class="TextShape"><tspan
               style="font-weight:400;font-size:388px"
               id="tspan85"
               font-weight="400"
               font-size="388px"
               class="TextParagraph"><tspan
                 id="tspan87"
                 y="4585"
                 x="4629"
                 class="TextPosition"><tspan
                   style="fill:#000000;stroke:none"
                   id="tspan89">thing</tspan></tspan></tspan></text>
</g></g><g
         id="g91"
         class="com.sun.star.drawing.CustomShape"><g
           id="id6"><path
             style="fill:none;stroke:#000000;stroke-width:50"
             inkscape:connector-curvature="0"
             id="path94"
             d="m 3900,3900 1001,0 -251,-200 -500,0 -250,200 z" /></g></g></g><g
       id="g96"
       class="Group"><g
         id="g98"
         class="com.sun.star.drawing.CustomShape"><g
           id="id7"><path
             style="fill:none;stroke:#000000;stroke-width:50"
             inkscape:connector-curvature="0"
             id="path101"
             d="m 5050,7800 -1150,0 0,-1100 2300,0 0,1100 -1150,0 z" /><text
             id="text103"
             class="TextShape"><tspan
               style="font-weight:400;font-size:388px"
               id="tspan105"
               font-weight="400"
               font-size="388px"
               class="TextParagraph"><tspan
                 id="tspan107"
                 y="7385"
                 x="4424"
                 class="TextPosition"><tspan
                   style="fill:#000000;stroke:none"
                   id="tspan109">backup</tspan></tspan></tspan></text>
</g></g><g
         id="g111"
         class="com.sun.star.drawing.CustomShape"><g
           id="id8"><path
             style="fill:none;stroke:#000000;stroke-width:50"
             inkscape:connector-curvature="0"
             id="path114"
             d="m 3900,6700 1001,0 -251,-200 -500,0 -250,200 z" /></g></g></g><g
       id="g116"
       class="Group"><g
         id="g118"
         class="com.sun.star.drawing.CustomShape"><g
           id="id9"><path
             style="fill:none;stroke:#000000;stroke-width:50"
             inkscape:connector-curvature="0"
             id="path121"
             d="m 2350,10600 -1150,0 0,-1100 2300,0 0,1100 -1150,0 z" /><text
             id="text123"
             class="TextShape"><tspan
               style="font-weight:400;font-size:352.77777909px"
               id="tspan125"
               font-weight="400"
               font-size="388px"
               class="TextParagraph"><tspan
                 id="tspan127"
                 y="10185"
                 x="1357"
                 class="TextPosition"
                 style="font-size:352.777771px;fill:#000000;stroke:none">2012-12-01</tspan></tspan></text>
</g></g><g
         id="g131"
         class="com.sun.star.drawing.CustomShape"><g
           id="id10"><path
             style="fill:none;stroke:#000000;stroke-width:50"
             inkscape:connector-curvature="0"
             id="path134"
             d="m 1200,9500 1001,0 -251,-200 -500,0 -250,200 z" /></g></g></g><g
       id="g136"
       class="Group"><g
         id="g138"
         class="com.sun.star.drawing.CustomShape"><g
           id="id11"><path
             style="fill:none;stroke:#000000;stroke-width:50"
             inkscape:connector-curvature="0"
             id="path141"
             d="m 5050,10600 -1150,0 0,-1100 2300,0 0,1100 -1150,0 z" /><text
             id="text143"
             class="TextShape"><tspan
               style="font-weight:400;font-size:352.77777909px"
               id="tspan145"
               font-weight="400"
               font-size="388px"
               class="TextParagraph"><tspan
                 id="tspan147"
                 y="10185"
                 x="4057"
                 class="TextPosition"
                 style="font-size:352.777771px;fill:#000000;stroke:none">2013-01-08</tspan></tspan></text>
</g></g><g
         id="g151"
         class="com.sun.star.drawing.CustomShape"><g
           id="id12"><path
             style="fill:none;stroke:#000000;stroke-width:50"
             inkscape:connector-curvature="0"
             id="path154"
             d="m 3900,9500 1001,0 -251,-200 -500,0 -250,200 z" /></g></g></g><g
       id="g156"
       class="Group"><g
         id="g158"
         class="com.sun.star.drawing.CustomShape"><g
           id="id13"><path
             style="fill:none;stroke:#000000;stroke-width:50"
             inkscape:connector-curvature="0"
             id="path161"
             d="m 7750,10600 -1150,0 0,-1100 2300,0 0,1100 -1150,0 z" /><text
             id="text163"
             class="TextShape"><tspan
               style="font-weight:400;font-size:352.77777909px"
               id="tspan165"
               font-weight="400"
               font-size="388px"
               class="TextParagraph"><tspan
                 id="tspan167"
                 y="10185"
                 x="6757"
                 class="TextPosition"
                 style="font-size:352.777771px;fill:#000000;stroke:none">2013-01-27</tspan></tspan></text>
</g></g><g
         id="g171"
         class="com.sun.star.drawing.CustomShape"><g
           id="id14"><path
             style="fill:none;stroke:#000000;stroke-width:50"
             inkscape:connector-curvature="0"
             id="path174"
             d="m 6600,9500 1001,0 -251,-200 -500,0 -250,200 z" /></g></g></g><g
       id="g176"
       class="Group"><g
         id="g178"
         class="com.sun.star.drawing.CustomShape"><g
           id="id15"><path
             style="fill:none;stroke:#000000;stroke-width:50"
             inkscape:connector-curvature="0"
             id="path181"
             d="m 12050,5100 -1150,0 0,-1100 2300,0 0,1100 -1150,0 z" /><text
             id="text183"
             class="TextShape"><tspan
               style="font-weight:400;font-size:388px"
               id="tspan185"
               font-weight="400"
               font-size="388px"
               class="TextParagraph"><tspan
                 id="tspan187"
                 y="4685"
                 x="11424"
                 class="TextPosition"><tspan
                   style="fill:#000000;stroke:none"
                   id="tspan189">backup</tspan></tspan></tspan></text>
</g></g><g
         id="g191"
         class="com.sun.star.drawing.CustomShape"><g
           id="id16"><path
             style="fill:none;stroke:#000000;stroke-width:50"
             inkscape:connector-curvature="0"
             id="path194"
             d="m 10900,4000 1001,0 -251,-200 -500,0 -250,200 z" /></g></g></g><g
       id="g196"
       class="Group"><g
         id="g198"
         class="com.sun.star.drawing.CustomShape"><g
           id="id17"><path
             style="fill:none;stroke:#000000;stroke-width:50"
             inkscape:connector-curvature="0"
             id="path201"
             d="m 9350,7800 -1150,0 0,-1100 2300,0 0,1100 -1150,0 z" /><text
             id="text203"
             class="TextShape"><tspan
               style="font-weight:400;font-size:388px"
               id="tspan205"
               font-weight="400"
               font-size="388px"
               class="TextParagraph"><tspan
                 id="tspan207"
                 y="7385"
                 x="8724"
                 class="TextPosition"><tspan
                   style="fill:#000000;stroke:none"
                   id="tspan209">original</tspan></tspan></tspan></text>
</g></g><g
         id="g211"
         class="com.sun.star.drawing.CustomShape"><g
           id="id18"><path
             style="fill:none;stroke:#000000;stroke-width:50"
             inkscape:connector-curvature="0"
             id="path214"
             d="m 8200,6700 1001,0 -251,-200 -500,0 -250,200 z" /></g></g></g><g
       id="g216"
       class="Group"><g
         id="g218"
         class="com.sun.star.drawing.CustomShape"><g
           id="id19"><path
             style="fill:none;stroke:#000000;stroke-width:50"
             inkscape:connector-curvature="0"
             id="path221"
             d="m 12050,7800 -1150,0 0,-1100 2300,0 0,1100 -1150,0 z" /><text
             id="text223"
             class="TextShape"><tspan
               style="font-weight:400;font-size:388px"
               id="tspan225"
               font-weight="400"
               font-size="388px"
               class="TextParagraph"><tspan
                 id="tspan227"
                 y="7385"
                 x="11165"
                 class="TextPosition"><tspan
                   style="fill:#000000;stroke:none"
                   id="tspan229">pnas_final</tspan></tspan></tspan></text>
</g></g><g
         id="g231"
         class="com.sun.star.drawing.CustomShape"><g
           id="id20"><path
             style="fill:none;stroke:#000000;stroke-width:50"
             inkscape:connector-curvature="0"
             id="path234"
             d="m 10900,6700 1001,0 -251,-200 -500,0 -250,200 z" /></g></g></g><g
       id="g236"
       class="Group"><g
         id="g238"
         class="com.sun.star.drawing.CustomShape"><g
           id="id21"><path
             style="fill:none;stroke:#000000;stroke-width:50"
             inkscape:connector-curvature="0"
             id="path241"
             d="m 14750,7800 -1150,0 0,-1100 2300,0 0,1100 -1150,0 z" /><text
             id="text243"
             class="TextShape"><tspan
               style="font-weight:400;font-size:388px"
               id="tspan245"
               font-weight="400"
               font-size="388px"
               class="TextParagraph"><tspan
                 id="tspan247"
                 y="7385"
                 x="13910"
                 class="TextPosition"><tspan
                   style="fill:#000000;stroke:none"
                   id="tspan249">pnas_sub</tspan></tspan></tspan></text>
</g></g><g
         id="g251"
         class="com.sun.star.drawing.CustomShape"><g
           id="id22"><path
             style="fill:none;stroke:#000000;stroke-width:50"
             inkscape:connector-curvature="0"
             id="path254"
             d="m 13600,6700 1001,0 -251,-200 -500,0 -250,200 z" /></g></g></g><g
       id="g256"
       class="com.sun.star.drawing.LineShape"><g
         id="id23"><path
           style="fill:none;stroke:#000000"
           inkscape:connector-curvature="0"
           id="path259"
           d="M 8300,2700 6491,3522" /><path
           style="fill:#000000;stroke:none"
           inkscape:connector-curvature="0"
           id="path261"
           d="m 6100,3700 472,-50 -124,-273 -348,323 z" /></g></g><g
       id="g263"
       class="com.sun.star.drawing.LineShape"><g
         id="id24"><path
           style="fill:none;stroke:#000000"
           inkscape:connector-curvature="0"
           id="path266"
           d="m 8900,2700 1809,822" /><path
           style="fill:#000000;stroke:none"
           inkscape:connector-curvature="0"
           id="path268"
           d="m 11100,3700 -348,-323 -124,273 472,50 z" /></g></g><g
       id="g270"
       class="com.sun.star.drawing.LineShape"><g
         id="id25"><path
           style="fill:none;stroke:#000000"
           inkscape:connector-curvature="0"
           id="path273"
           d="M 4700,8000 2891,8822" /><path
           style="fill:#000000;stroke:none"
           inkscape:connector-curvature="0"
           id="path275"
           d="m 2500,9000 472,-50 -124,-273 -348,323 z" /></g></g><g
       id="g277"
       class="com.sun.star.drawing.LineShape"><g
         id="id26"><path
           style="fill:none;stroke:#000000"
           inkscape:connector-curvature="0"
           id="path280"
           d="m 5300,8000 1809,822" /><path
           style="fill:#000000;stroke:none"
           inkscape:connector-curvature="0"
           id="path282"
           d="m 7500,9000 -348,-323 -124,273 472,50 z" /></g></g><g
       id="g284"
       class="com.sun.star.drawing.LineShape"><g
         id="id27"><path
           style="fill:none;stroke:#000000"
           inkscape:connector-curvature="0"
           id="path287"
           d="m 5000,8000 0,770" /><path
           style="fill:#000000;stroke:none"
           inkscape:connector-curvature="0"
           id="path289"
           d="m 5000,9200 150,-450 -300,0 150,450 z" /></g></g><g
       id="g291"
       class="com.sun.star.drawing.LineShape"><g
         id="id28"><path
           style="fill:none;stroke:#000000"
           inkscape:connector-curvature="0"
           id="path294"
           d="M 11800,5300 9991,6122" /><path
           style="fill:#000000;stroke:none"
           inkscape:connector-curvature="0"
           id="path296"
           d="m 9600,6300 472,-50 -124,-273 -348,323 z" /></g></g><g
       id="g298"
       class="com.sun.star.drawing.LineShape"><g
         id="id29"><path
           style="fill:none;stroke:#000000"
           inkscape:connector-curvature="0"
           id="path301"
           d="m 12400,5300 1809,822" /><path
           style="fill:#000000;stroke:none"
           inkscape:connector-curvature="0"
           id="path303"
           d="m 14600,6300 -348,-323 -124,273 472,50 z" /></g></g><g
       id="g305"
       class="com.sun.star.drawing.LineShape"><g
         id="id30"><path
           style="fill:none;stroke:#000000"
           inkscape:connector-curvature="0"
           id="path308"
           d="m 12100,5300 0,770" /><path
           style="fill:#000000;stroke:none"
           inkscape:connector-curvature="0"
           id="path310"
           d="m 12100,6500 150,-450 -300,0 150,450 z" /></g></g><g
       id="g312"
       class="com.sun.star.drawing.LineShape"><g
         id="id31"><path
           style="fill:none;stroke:#000000"
           inkscape:connector-curvature="0"
           id="path315"
           d="m 5000,5200 0,770" /><path
           style="fill:#000000;stroke:none"
           inkscape:connector-curvature="0"
           id="path317"
           d="m 5000,6400 150,-450 -300,0 150,450 z" /></g></g></g></svg>